<svg width="240" height="240" viewBox="0 0 240 240" fill="none" xmlns="http://www.w3.org/2000/svg">
<defs>
    <linearGradient id="grad1" x1="0%" y1="0%" x2="100%" y2="100%">
        <stop offset="0%" style="stop-color:#4F46E5;stop-opacity:1" />
        <stop offset="100%" style="stop-color:#3B82F6;stop-opacity:1" />
    </linearGradient>
    <linearGradient id="grad2" x1="0%" y1="0%" x2="100%" y2="100%">
        <stop offset="0%" style="stop-color:#10B981;stop-opacity:1" />
        <stop offset="100%" style="stop-color:#6EE7B7;stop-opacity:1" />
    </linearGradient>
</defs>
<path d="M120 20 L220 70 L220 170 L120 220 L20 170 L20 70 L120 20 Z" stroke="url(#grad1)" stroke-width="12" stroke-linejoin="round"/>
<path d="M70 90 H170 V150 H70 V90 Z" fill="none" stroke="url(#grad2)" stroke-width="10" rx="10"/>
<path d="M90 90 L90 70 C90 60 100 60 100 70 L100 90" stroke="url(#grad2)" stroke-width="10" fill="none" stroke-linecap="round" />
<path d="M140 90 L140 70 C140 60 150 60 150 70 L150 90" stroke="url(#grad2)" stroke-width="10" fill="none" stroke-linecap="round" />
<circle cx="85" cy="120" r="5" fill="url(#grad1)"/>
<line x1="100" y1="120" x2="155" y2="120" stroke="#FFFFFF" stroke-width="4" stroke-linecap="round"/>
<line x1="100" y1="135" x2="140" y2="135" stroke="#FFFFFF" stroke-width="4" stroke-linecap="round"/>
</svg>